HIERARCHY
ROOT hip
{
	OFFSET 0.000000 0.000000 0.000000 
	CHANNELS 6 Xposition Yposition Zposition Xrotation Zrotation Yrotation
	JOINT abdomen
	{
		OFFSET 0.000000 3.402643 0.000000 
		CHANNELS 3 Xrotation Zrotation Yrotation
		JOINT chest
		{
			OFFSET 0.000000 8.438565 -0.680529 
			CHANNELS 3 Xrotation Zrotation Yrotation
			JOINT neck
			{
				OFFSET 0.000000 10.207942 -0.272212 
				CHANNELS 3 Xrotation Zrotation Yrotation
				JOINT head
				{
					OFFSET 0.000000 3.130431 0.000000 
					CHANNELS 3 Xrotation Zrotation Yrotation
					End Site
					{
						OFFSET 0.000000 3.130435 0.000000 
					}
				}
			}
			JOINT lCollar
			{
				OFFSET 3.470700 6.669187 -0.816635 
				CHANNELS 3 Yrotation Zrotation Xrotation
				JOINT lShldr
				{
					OFFSET 3.198488 0.000000 0.000000 
					CHANNELS 3 Zrotation Yrotation Xrotation
					JOINT lForeArm
					{
						OFFSET 10.139888 0.000000 0.000000 
						CHANNELS 3 Yrotation Zrotation Xrotation
						JOINT lHand
						{
							OFFSET 8.370511 0.000000 0.000000 
							CHANNELS 3 Zrotation Yrotation Xrotation
							End Site
							{
								OFFSET 4.083176 0.000000 0.000000 
							}
						}
					}
				}
			}
			JOINT rCollar
			{
				OFFSET -3.470700 6.669187 -0.816635 
				CHANNELS 3 Yrotation Zrotation Xrotation
				JOINT rShldr
				{
					OFFSET -3.198488 0.000000 0.000000 
					CHANNELS 3 Zrotation Yrotation Xrotation
					JOINT rForeArm
					{
						OFFSET -10.139888 0.000000 0.000000 
						CHANNELS 3 Yrotation Zrotation Xrotation
						JOINT rHand
						{
							OFFSET -8.370511 0.000000 0.000000 
							CHANNELS 3 Zrotation Yrotation Xrotation
							End Site
							{
								OFFSET -4.083176 0.000000 0.000000 
							}
						}
					}
				}
			}
		}
	}
	JOINT lThigh
	{
		OFFSET 5.308129 -1.633274 1.361059 
		CHANNELS 3 Xrotation Zrotation Yrotation
		JOINT lShin
		{
			OFFSET -2.041588 -20.007561 0.000000 
			CHANNELS 3 Xrotation Zrotation Yrotation
			JOINT lFoot
			{
				OFFSET 0.000000 -19.190928 -1.224953 
				CHANNELS 3 Xrotation Yrotation Zrotation
				End Site
				{
					OFFSET 0.000000 -2.449906 4.627600 
				}
			}
		}
	}
	JOINT rThigh
	{
		OFFSET -5.308129 -1.633274 1.361059 
		CHANNELS 3 Xrotation Zrotation Yrotation
		JOINT rShin
		{
			OFFSET 2.041588 -20.007561 0.000000 
			CHANNELS 3 Xrotation Zrotation Yrotation
			JOINT rFoot
			{
				OFFSET 0.000000 -19.190928 -1.224953 
				CHANNELS 3 Xrotation Yrotation Zrotation
				End Site
				{
					OFFSET 0.000000 -2.449906 4.627600 
				}
			}
		}
	}
}
MOTION
Frames: 18
Frame Time: 0.016667
-5.890676 53.568096 -11.575040 -1.157727 5.459329 82.524452 33.488274 4.680435 2.806124 4.836186 -2.254889 3.038114 10.996453 -4.357218 -0.736747 -0.826086 -12.052047 70.356422 -8.976192 -11.401617 -0.604260 -64.756744 16.276142 -32.888882 -34.214252 -5.000000 16.223557 -8.683419 -2.828684 -7.260876 23.563059 -0.225681 0.004847 77.524506 -16.645235 -35.964195 42.277855 5.000000 19.024410 5.810210 -21.936567 1.304767 -6.826071 22.809227 13.398401 21.179251 -3.293982 -1.375948 -5.192318 5.516619 -0.304267 6.612969 -11.469944 -39.996162 19.420458 4.114285 1.594441 0.320561 -35.699715 11.696475 
-5.772478 53.498638 -12.047306 -2.025685 5.224263 86.270653 33.329071 5.391868 2.674336 4.958016 -1.923370 2.373654 10.811318 -3.827617 -0.628209 -0.863029 -11.911973 69.745895 -9.323006 -10.952961 -0.579211 -65.170509 16.192619 -32.682861 -33.812431 -5.000000 16.525604 -8.681587 -2.977844 -7.010673 22.977121 -0.108557 -0.001242 78.092117 -17.214226 -37.442871 41.679996 5.000000 19.702908 5.777299 -21.902655 1.200824 -8.104539 23.916927 13.770817 21.021803 -3.291798 -1.355120 -5.458075 6.084877 0.115577 7.905077 -10.759880 -39.993145 18.827765 4.083667 1.535248 2.448075 -36.340374 14.063925 
-5.611262 53.401482 -12.541672 -2.922538 5.077783 89.941223 33.083622 5.868591 2.646876 4.991906 -1.454969 1.279318 10.724356 -3.179179 -0.517997 -0.843435 -11.737249 69.080215 -9.707830 -10.377519 -0.549508 -65.725861 16.347477 -32.647827 -33.350143 -5.000000 16.943899 -9.110801 -3.105448 -6.362461 22.488886 0.145087 -0.014381 78.610184 -17.627007 -38.803352 41.138466 5.000000 20.342724 5.651374 -21.926579 1.391309 -9.560709 24.939901 13.810078 20.923349 -3.350271 -1.377556 -6.106084 6.467101 0.470301 9.524470 -9.832284 -39.992905 17.833845 3.966816 1.406106 3.943241 -36.372490 15.815575 
-5.408766 53.261913 -13.064346 -3.827465 4.995193 93.596924 32.807575 6.302050 2.652308 5.007645 -0.957029 0.097639 10.640260 -2.500247 -0.402650 -0.805382 -11.560501 68.402176 -10.102565 -9.782567 -0.517079 -66.308716 16.567142 -32.647152 -32.879684 -5.000000 17.401033 -9.615339 -3.227163 -5.629867 22.010490 0.427989 -0.029031 79.120758 -17.997513 -40.145042 40.587395 5.000000 20.987333 5.502749 -21.962212 1.615091 -11.053569 25.931664 13.792653 20.790682 -3.427454 -1.439215 -6.784970 6.780330 0.790070 11.235132 -8.925064 -39.507278 16.792583 3.830986 1.301712 5.313861 -36.245514 17.444101 
-5.177176 53.054901 -13.622560 -4.631054 4.926724 97.204781 32.487656 6.653302 2.414820 4.993763 -0.517566 -0.830150 10.499554 -1.680240 -0.269639 -0.735809 -11.323343 67.661598 -10.525520 -9.021820 -0.476252 -66.908546 16.827856 -32.613678 -32.520687 -5.000000 17.923237 -10.332826 -3.254024 -4.772896 21.483353 0.730403 -0.044690 79.718140 -18.329451 -41.595825 40.275749 5.000000 21.567976 5.342542 -21.928396 1.585518 -12.792882 26.649937 14.027402 21.045773 -3.496013 -1.507869 -7.817367 7.075689 1.174699 13.178084 -7.919495 -36.608795 15.284097 3.634820 1.131091 6.365129 -35.951618 18.767241 
-4.912668 52.782684 -14.212869 -5.352475 4.860149 100.762222 32.121693 6.935275 1.931917 4.953294 -0.146469 -1.484397 10.285305 -0.719155 -0.118466 -0.655124 -11.033508 66.867279 -10.986897 -8.105024 -0.428939 -67.535217 17.156404 -32.552521 -32.273964 -5.000000 18.493393 -11.259706 -3.174648 -3.805912 20.887976 1.062087 -0.061864 80.393700 -18.602339 -43.131649 40.169483 5.000000 22.097124 5.151742 -21.838861 1.329736 -14.745274 27.105352 14.537299 21.656368 -3.578599 -1.564787 -9.178519 7.345205 1.578280 15.392272 -6.894081 -33.645725 13.349485 3.407703 0.913361 7.154276 -35.440239 19.828138 
-4.635734 52.451073 -14.857615 -6.034398 4.817771 104.336372 31.761312 7.187294 1.444613 4.907423 0.214793 -2.109366 10.048993 0.230847 0.024373 -0.588240 -10.740276 66.065414 -11.439306 -7.188225 -0.380293 -68.116432 17.460171 -32.449390 -32.074913 -5.000000 19.052063 -12.192565 -3.095573 -2.885258 20.282925 1.393772 -0.079035 81.075020 -18.842995 -44.649483 40.105484 5.000000 22.591852 4.945585 -21.735573 1.014436 -16.747049 27.418486 15.177534 22.351498 -3.554541 -1.639152 -10.543612 7.649614 1.945796 17.670944 -5.957142 -30.841976 11.388601 3.183846 0.713001 7.866590 -34.986439 20.839218 
-4.351173 52.063122 -15.559344 -6.552923 4.695274 107.950859 31.477770 7.375159 0.910635 4.820610 0.478329 -2.607447 9.643061 1.118526 0.146967 -0.636737 -10.402539 65.304062 -11.883084 -6.329937 -0.334875 -68.472031 17.610615 -32.068478 -32.074692 -5.000000 19.488342 -13.185217 -3.095119 -2.281366 19.609602 1.715716 -0.095994 81.755493 -18.920122 -45.000000 40.277473 5.000000 22.873211 4.574177 -21.553333 0.410631 -19.079676 27.053761 16.424763 23.774872 -3.139899 -1.515735 -12.049609 8.099278 2.028470 20.145350 -5.078956 -29.201050 9.057637 3.057236 0.550988 8.653346 -34.647381 21.738033 
-4.066251 51.630169 -16.313332 -7.036091 4.583477 111.582825 31.210361 7.545638 0.368154 4.721709 0.722245 -3.086030 9.213162 1.995055 0.261533 -0.709664 -10.064979 64.546707 -12.327597 -5.481398 -0.291105 -68.786339 17.729887 -31.639647 -32.114052 -5.000000 19.899128 -14.185806 -3.096705 -1.723387 18.916842 2.037663 -0.112713 82.429726 -18.964748 -45.000000 40.487988 5.000000 23.127934 4.180523 -21.369175 -0.243284 -21.483736 26.629082 17.822523 25.319031 -2.647857 -1.364116 -13.499438 8.490077 2.013864 22.683020 -4.258640 -27.759701 6.652688 2.942880 0.400339 9.424994 -34.236885 22.685827 
-3.813313 51.176582 -17.120884 -7.383094 4.256607 115.074509 30.931311 7.527858 -0.388252 4.547466 0.897846 -3.291219 8.778641 2.908691 0.360601 -0.815777 -9.722668 63.771496 -12.821948 -4.710866 -0.250498 -68.934334 17.776062 -31.049520 -32.219379 -5.000000 20.148283 -14.931381 -3.253240 -1.505690 18.361006 2.408352 -0.131946 82.965485 -18.844744 -45.000000 40.671032 5.000000 23.226463 3.499934 -21.153847 -0.792204 -24.227427 25.808176 18.349262 27.665270 -2.007736 -1.067749 -14.323257 8.285080 1.503470 24.849993 -3.770617 -26.754608 4.614935 2.821668 0.287087 10.533099 -33.961296 23.543276 
-3.585754 50.698643 -17.974218 -7.568124 3.697561 118.453171 30.680984 7.322369 -1.337968 4.291040 0.985702 -3.252155 8.340472 3.852667 0.466087 -0.957578 -9.373579 62.997902 -13.346509 -4.037855 -0.215804 -68.911263 17.766979 -30.310068 -32.414978 -5.000000 20.230812 -15.411084 -3.567877 -1.616754 17.922564 2.808279 -0.152682 83.357513 -18.578901 -45.000000 40.829548 5.000000 23.181314 2.542422 -20.895309 -1.247370 -27.313646 24.578638 18.032436 30.868757 -1.207947 -0.623707 -14.450894 7.388009 0.409340 26.683716 -3.526626 -26.204227 2.874153 2.629714 0.196326 11.920558 -33.658325 24.419609 
-3.382514 50.230515 -18.898165 -7.801142 3.155392 121.833458 30.432686 7.117219 -2.274617 4.044159 1.083323 -3.203321 7.907166 4.795081 0.561455 -1.094857 -9.023315 62.225700 -13.871484 -3.364840 -0.181080 -68.891457 17.755867 -29.560810 -32.608070 -5.000000 20.320349 -15.878661 -3.896349 -1.731071 17.493536 3.220892 -0.164614 83.752327 -18.302162 -45.000000 40.980774 5.000000 23.143274 1.573843 -20.661325 -1.691508 -30.358858 23.326595 17.811821 34.094284 -0.427522 -0.150924 -14.589439 6.510284 -0.709610 28.493139 -3.311338 -25.664223 1.136548 2.454940 0.121078 13.401196 -33.317387 25.314871 
-3.211332 49.782612 -19.916050 -7.942877 2.371102 124.606842 30.365074 6.952957 -2.940326 3.872670 1.015070 -3.008034 7.156045 5.278321 0.558094 -1.615046 -8.641027 61.681828 -13.987600 -3.013728 -0.162958 -68.943138 17.272785 -28.801613 -33.031902 -5.000000 19.808153 -15.426145 -3.984538 -1.217128 17.122387 3.201388 -0.163605 83.954140 -17.578421 -45.000000 41.277248 5.000000 22.432049 0.717150 -20.770210 -1.534593 -33.417473 21.747559 13.897985 38.043793 -2.072724 -1.817139 -15.348828 8.267636 0.918334 29.306248 -3.720890 -26.053600 0.842990 2.249836 0.057012 15.042705 -32.757393 25.512709 
-3.062072 49.367714 -21.012726 -8.130284 1.601208 127.373207 30.314930 6.789059 -3.584063 3.710691 0.946805 -2.812740 6.404592 5.769758 0.543685 -2.144843 -8.271582 61.130760 -14.094088 -2.672370 -0.145334 -68.991371 16.794502 -28.031546 -33.453793 -5.000000 19.291508 -14.966645 -4.081262 -0.705576 16.741470 3.181882 -0.162595 84.170708 -16.855152 -45.000000 41.568413 5.000000 21.723095 -0.150878 -20.869555 -1.371386 -36.281406 19.974443 10.136165 42.009274 -3.632010 -3.600255 -16.156721 9.968118 2.555557 30.126270 -4.140857 -26.493519 0.560076 2.064232 0.023586 16.666971 -32.126884 25.713980 
-2.927239 49.029335 -22.202154 -8.399413 0.917060 129.698212 30.284748 6.830665 -3.882258 3.619510 0.819988 -2.539177 5.662013 5.940665 0.498178 -2.673139 -8.020608 60.537006 -14.055151 -2.721139 -0.147853 -68.893776 16.187786 -27.332548 -33.838062 -5.000000 18.742706 -14.476475 -4.071396 -0.298328 16.536036 3.055099 -0.156029 84.126701 -16.193045 -45.000000 41.951515 5.000000 20.824783 -0.676054 -20.861898 -1.229500 -38.241249 17.978054 7.830241 45.244080 -4.316154 -4.727043 -17.223022 10.854238 3.965549 30.504232 -4.786369 -27.007772 0.755147 1.790690 0.008345 19.308710 -30.695099 25.946804 
-2.812690 48.771351 -23.505814 -8.736789 0.317646 131.590836 30.256956 7.093399 -3.850744 3.607793 0.634582 -2.197289 4.928556 5.819998 0.417170 -3.214116 -7.901387 59.899967 -13.861079 -3.160038 -0.170513 -68.640739 15.458320 -26.683167 -34.178558 -5.000000 18.162611 -13.941799 -3.948118 -0.014961 16.486584 2.821037 -0.143907 83.828300 -15.573801 -44.285397 42.413471 5.000000 19.746136 -0.857544 -20.746967 -1.114874 -39.320160 15.846367 6.934804 47.707901 -4.221821 -5.040104 -18.504461 10.782718 5.086527 30.458139 -5.674746 -27.647280 1.497115 1.430017 0.040186 22.868155 -28.509123 26.100529 
-2.688863 48.594261 -24.817106 -9.115244 -0.181356 133.456726 30.236759 7.415380 -3.762248 3.593695 0.488182 -1.865276 4.235483 5.700761 0.345773 -3.746276 -7.816175 59.251728 -13.696546 -3.618436 -0.194167 -68.431953 14.731458 -26.084494 -34.479584 -5.000000 17.583735 -13.429838 -3.803400 0.176028 16.476669 2.584205 -0.141136 83.501495 -14.970592 -42.601959 42.792759 5.000000 18.735111 -0.978698 -20.541346 -0.965361 -40.215683 13.785001 6.064732 49.991692 -4.134152 -5.367761 -19.650738 10.719448 6.149683 30.316734 -6.514679 -28.087486 2.361042 1.085018 0.034022 26.415520 -26.268353 25.969091 
-2.544346 48.502460 -26.100424 -9.642527 -0.173338 135.234100 30.309109 8.076113 -3.392253 3.614728 0.478443 -1.640590 3.809435 5.624479 0.298329 -4.144268 -7.886508 58.560589 -13.678192 -4.127881 -0.210851 -68.402687 14.061115 -25.689854 -34.626862 -5.000000 16.961506 -13.032243 -3.566881 -0.165772 16.700609 2.301343 -0.126473 82.904457 -14.451925 -40.866634 42.854065 5.000000 17.945200 -0.751339 -19.856499 -0.684905 -40.239128 12.146403 5.100506 51.235359 -4.202791 -5.702399 -20.371675 10.866363 7.100976 29.667641 -7.060613 -27.460802 4.029256 0.832670 0.011391 30.365946 -23.707363 25.217810 
